<svg version="1.1" xmlns="http://www.w3.org/2000/svg" viewBox="-2416.3812699117175 -1551.6375 9769.581269911718 2669.775"><desc>Created with Snap</desc><defs></defs><g><g transform="matrix(20.688,0,0,20.688,-2228.0129,-1246.8735)"><path fill="#59886f" d="M93.978,22.513c-0.004-0.025-0.008-0.05-0.012-0.075c-0.018-0.114-0.042-0.228-0.073-0.34  c-0.006-0.019-0.011-0.039-0.016-0.058c-0.037-0.125-0.082-0.247-0.135-0.368c-0.012-0.024-0.024-0.048-0.036-0.072  c-0.028-0.06-0.056-0.12-0.088-0.179c-0.019-0.033-0.04-0.063-0.06-0.095c-0.019-0.032-0.037-0.062-0.058-0.094  c-0.065-0.1-0.135-0.196-0.209-0.286c-0.006-0.007-0.012-0.016-0.018-0.023c-0.087-0.103-0.18-0.197-0.276-0.286  c-0.019-0.017-0.038-0.033-0.059-0.049c-0.086-0.076-0.176-0.145-0.27-0.21c-0.019-0.013-0.036-0.026-0.055-0.039  c-0.11-0.073-0.226-0.138-0.343-0.196c-0.008-0.003-0.015-0.009-0.021-0.013l-20.518-9.854L51.217,0.423  c-0.848-0.407-1.834-0.407-2.683,0l-20.517,9.854L7.5,20.13c-0.007,0.003-0.014,0.008-0.021,0.012  c-0.119,0.059-0.234,0.124-0.345,0.197c-0.019,0.012-0.036,0.025-0.055,0.038c-0.093,0.064-0.183,0.134-0.27,0.21  c-0.02,0.017-0.04,0.033-0.059,0.05c-0.096,0.088-0.189,0.182-0.275,0.284c-0.008,0.01-0.015,0.02-0.023,0.03  c-0.072,0.088-0.14,0.182-0.204,0.278C6.23,21.263,6.21,21.295,6.19,21.328c-0.019,0.031-0.04,0.061-0.058,0.093  c-0.032,0.058-0.058,0.116-0.085,0.175c-0.013,0.026-0.027,0.051-0.039,0.078c-0.053,0.12-0.098,0.242-0.134,0.365  c-0.006,0.021-0.011,0.043-0.017,0.065c-0.03,0.11-0.055,0.221-0.072,0.332c-0.004,0.027-0.009,0.053-0.013,0.08  c-0.018,0.134-0.028,0.268-0.028,0.401c0,0.002,0,0.005,0,0.007v25.243v0.104v25.242c0,1.126,0.611,2.164,1.596,2.71l19.928,11.051  c0.178,0.163,0.373,0.31,0.589,0.431L48.373,99.08c0.001,0.001,0.002,0.002,0.004,0.002c0.109,0.062,0.223,0.114,0.339,0.161  c0.02,0.008,0.039,0.015,0.059,0.021c0.092,0.035,0.188,0.065,0.285,0.094c0.03,0.008,0.062,0.016,0.092,0.023  c0.089,0.021,0.179,0.038,0.271,0.052c0.03,0.004,0.061,0.01,0.091,0.014c0.119,0.014,0.238,0.022,0.36,0.022  s0.242-0.009,0.36-0.022c0.031-0.004,0.061-0.01,0.092-0.014c0.092-0.014,0.183-0.03,0.271-0.052  c0.03-0.008,0.062-0.016,0.092-0.023c0.098-0.028,0.192-0.059,0.286-0.094c0.019-0.007,0.039-0.014,0.059-0.021  c0.115-0.047,0.229-0.1,0.338-0.161c0.002,0,0.003-0.001,0.005-0.002l20.517-11.376c0.217-0.121,0.411-0.268,0.588-0.431  l19.929-11.051c0.984-0.546,1.596-1.584,1.596-2.71V48.271v-0.104V22.923c0-0.001,0-0.003,0-0.005  C94.007,22.783,93.995,22.648,93.978,22.513z M11.94,28.184l14.32,7.941v18.262l-14.32-7.941V28.184z M29.358,16.506l13.772,6.615  l-13.772,7.637l-13.772-7.637L29.358,16.506z M70.392,16.506l13.772,6.615l-13.772,7.637L56.62,23.121L70.392,16.506z   M49.875,67.482l-14.129-7.835l14.129-7.835l14.128,7.835L49.875,67.482z M67.294,54.387l-14.32-7.941V28.184l14.32,7.941V54.387z   M46.777,46.445l-14.321,7.941V36.125l14.321-7.941V46.445z M32.457,64.907l14.321,7.942V91.11l-14.321-7.94V64.907z M52.974,72.849  l14.32-7.941V83.17l-14.32,7.94V72.849z M73.49,54.387V36.125l14.321-7.941v18.262L73.49,54.387z M49.875,6.652l13.361,6.417  l-13.361,6.417l-13.361-6.417L49.875,6.652z M11.94,53.53l14.32,7.941v18.159l-14.32-7.941V53.53z M73.49,79.631V61.472  l14.321-7.941v18.159L73.49,79.631z" style=""></path><desc>Created with Snap</desc><defs></defs></g><g><g transform="matrix(0.5,0,0,-0.5,0,0)"><path d="M672 67Q683 39 695 13Q707 -12 722 -32Q737 -52 756 -64Q775 -76 799 -76Q815 -76 833 -70Q852 -63 874 -47L879 -50L807 -220Q743 -220 696 -200Q650 -180 617 -146Q584 -112 562 -66Q541 -20 527 33L376 588Q373 586 362 584Q351 583 338 581Q326 580 314 578Q303 577 299 577Q300 527 300 472Q301 418 302 362Q303 307 304 253Q305 199 306 149Q310 95 334 58Q358 22 409 5L409 0L48 0L48 5Q99 22 121 61Q143 100 147 153Q154 314 158 452Q163 590 163 721Q163 838 161 953Q160 1068 148 1194Q143 1241 118 1274Q94 1308 48 1322L48 1327L403 1327Q465 1327 519 1307Q573 1288 612 1250Q652 1212 675 1156Q698 1100 698 1027Q698 879 644 779Q590 679 501 632Q539 494 578 355Q617 216 672 67ZM297 774Q297 754 296 734Q296 715 297 692Q422 692 477 776Q533 860 533 1027Q533 1121 496 1170Q460 1220 387 1220Q369 1220 346 1219Q323 1219 306 1217L306 1177Q303 1104 301 1032Q299 970 298 900Q297 831 297 774ZM1474 472Q1474 345 1476 264Q1478 184 1491 137Q1504 91 1533 73Q1562 56 1617 56L1617 51L1346 -29Q1354 -2 1355 33Q1356 69 1356 107Q1329 65 1297 38Q1266 12 1233 -3Q1200 -18 1167 -24Q1135 -29 1108 -29Q1008 -29 951 82Q895 193 895 411Q895 547 893 634Q892 722 879 772Q866 822 837 841Q809 861 754 861L754 866L1075 986Q1067 973 1061 958Q1056 943 1052 921Q1048 899 1045 869Q1043 839 1042 795Q1041 751 1040 692Q1040 633 1040 554Q1040 447 1042 359Q1045 272 1055 209Q1066 147 1088 112Q1110 78 1149 78Q1185 78 1218 98Q1251 118 1276 159Q1301 201 1316 263Q1331 326 1331 411Q1331 547 1329 634Q1328 722 1315 772Q1302 822 1273 841Q1245 861 1190 861L1190 866L1511 986Q1503 971 1497 954Q1491 937 1487 911Q1483 886 1480 850Q1478 814 1476 761Q1475 709 1474 638Q1474 567 1474 472ZM1610 1267L1901 1347Q1890 1204 1889 1037Q1889 870 1889 684Q1889 548 1889 415Q1890 282 1898 149Q1902 95 1926 58Q1950 22 2001 5L2001 0L1640 0L1640 5Q1691 22 1713 61Q1735 100 1739 153Q1746 314 1750 452Q1755 590 1755 721Q1755 849 1754 938Q1754 1028 1750 1088Q1746 1148 1737 1183Q1729 1218 1712 1235Q1696 1253 1671 1257Q1646 1262 1610 1262L1610 1267ZM2452 336L2453 341L2672 321Q2672 231 2646 165Q2621 100 2581 56Q2542 13 2494 -8Q2446 -29 2400 -29Q2334 -29 2277 5Q2220 39 2178 104Q2136 169 2112 264Q2088 359 2088 482Q2088 605 2112 700Q2136 795 2178 860Q2220 925 2277 959Q2334 993 2400 993Q2455 993 2501 963Q2548 934 2583 876Q2618 819 2639 733Q2661 648 2666 537L2243 389Q2256 225 2301 150Q2346 76 2415 76Q2448 76 2470 88Q2493 101 2507 121Q2522 142 2528 167Q2535 193 2535 220Q2535 252 2514 283Q2494 314 2452 336ZM2238 482L2238 478Q2267 489 2310 506Q2353 523 2418 553Q2455 570 2482 587Q2509 604 2530 616Q2520 755 2487 821Q2455 887 2400 887Q2323 887 2280 785Q2238 683 2238 482ZM3140 111Q3147 180 3152 242Q3157 305 3161 366Q3166 428 3171 491Q3176 554 3182 624Q3185 661 3188 703Q3192 746 3195 789Q3198 833 3201 876Q3204 920 3207 960Q3213 1053 3218 1147Q3219 1153 3219 1158Q3219 1164 3219 1169Q3219 1283 3107 1322L3108 1327L3309 1327Q3320 1327 3330 1310Q3341 1294 3350 1268Q3360 1242 3368 1210Q3376 1179 3382 1148Q3389 1118 3394 1092Q3399 1067 3402 1054Q3414 1010 3429 959Q3444 909 3460 856Q3476 804 3492 751Q3509 698 3524 649Q3560 535 3597 418Q3653 608 3701 767Q3721 835 3741 902Q3761 970 3777 1028Q3794 1087 3806 1130Q3819 1174 3824 1194Q3830 1218 3833 1241Q3837 1265 3845 1284Q3854 1303 3871 1315Q3889 1327 3924 1327L4067 1327L4068 1322Q3976 1292 3976 1195Q3976 1190 3976 1186Q3976 1182 3977 1177Q3979 1151 3982 1090Q3986 1029 3991 944Q3997 860 4004 758Q4011 657 4020 551Q4029 445 4040 341Q4051 238 4064 149Q4072 95 4100 58Q4128 22 4179 5L4180 0L3819 0L3818 5Q3869 22 3887 61Q3905 100 3905 153Q3902 234 3899 308Q3897 382 3893 452Q3890 522 3885 589Q3880 656 3873 721L3860 905Q3840 825 3810 735Q3781 645 3750 555Q3719 465 3691 380Q3663 295 3645 224Q3638 200 3631 174Q3625 149 3618 128Q3612 107 3604 94Q3597 81 3588 81Q3579 81 3571 94Q3563 107 3556 127Q3549 148 3542 173Q3536 199 3529 224Q3508 296 3483 378Q3458 460 3432 545Q3406 631 3379 717Q3353 804 3329 885Q3320 690 3308 497Q3296 305 3289 117Q3288 85 3286 51Q3285 17 3278 -15Q3272 -47 3259 -75Q3246 -103 3221 -125Q3196 -146 3157 -158Q3118 -170 3061 -170L2981 -44L2984 -40Q3006 -45 3024 -49Q3042 -52 3056 -52Q3077 -52 3091 -45Q3105 -37 3114 -18Q3124 1 3129 32Q3135 64 3140 111ZM4418 675L4416 672L4246 777Q4259 848 4285 890Q4312 933 4344 955Q4377 978 4413 985Q4450 992 4485 992Q4609 992 4670 903Q4732 814 4731 640Q4731 549 4730 482Q4730 416 4730 369Q4730 322 4729 291Q4729 261 4729 241Q4729 222 4729 210Q4729 198 4729 188Q4729 163 4732 135Q4735 107 4744 81Q4754 56 4772 35Q4791 15 4822 5L4822 0L4667 0Q4644 14 4632 38Q4620 62 4614 91Q4608 79 4595 58Q4582 38 4561 18Q4540 -1 4510 -15Q4481 -29 4442 -29Q4385 -29 4343 -6Q4302 17 4275 56Q4248 95 4235 145Q4222 196 4222 250Q4222 319 4243 387Q4265 456 4304 510Q4344 565 4399 599Q4454 633 4522 633Q4556 633 4587 626Q4587 706 4580 757Q4573 808 4559 837Q4545 866 4523 876Q4502 887 4474 887Q4450 887 4433 879Q4417 871 4406 857Q4396 843 4391 824Q4387 806 4387 785Q4387 757 4395 728Q4404 699 4418 675ZM4459 77Q4497 77 4521 105Q4546 134 4560 176Q4575 218 4581 265Q4587 313 4587 351L4587 542Q4558 552 4529 552Q4489 552 4458 528Q4427 505 4406 467Q4385 429 4374 379Q4363 329 4363 277Q4363 237 4369 201Q4375 165 4387 137Q4399 110 4417 93Q4435 77 4459 77ZM5470 281L5474 282L5523 146Q5476 59 5410 15Q5345 -29 5264 -29Q5189 -29 5124 4Q5060 38 5012 103Q4965 168 4938 263Q4911 358 4911 481Q4911 604 4936 699Q4962 794 5006 859Q5051 924 5111 958Q5172 992 5243 992Q5316 992 5368 969Q5421 947 5458 906Q5495 866 5519 810Q5544 754 5562 687L5367 585L5364 590Q5384 615 5393 639Q5402 664 5402 688Q5402 719 5396 754Q5390 790 5373 819Q5357 848 5329 867Q5301 887 5257 887Q5215 887 5179 862Q5143 838 5116 788Q5090 738 5075 661Q5061 585 5061 481Q5061 280 5117 178Q5173 76 5273 76Q5310 76 5341 92Q5373 108 5398 135Q5423 163 5441 200Q5459 238 5470 281ZM6320 592Q6320 527 6320 472Q6320 417 6321 364Q6322 311 6324 257Q6326 203 6329 139Q6333 89 6355 54Q6377 20 6422 5L6422 0L6100 0L6100 5Q6141 21 6159 57Q6177 94 6179 143Q6185 312 6185 409Q6185 515 6182 603Q6179 691 6165 753Q6152 816 6124 850Q6096 885 6046 885Q6008 885 5973 866Q5939 847 5913 812Q5887 778 5871 730Q5856 682 5856 624L5856 534Q5856 434 5858 336Q5860 238 5865 139Q5868 89 5887 54Q5907 20 5948 5L5948 0L5613 0L5613 5Q5664 21 5686 57Q5708 94 5712 143Q5713 307 5718 447Q5723 588 5723 721Q5723 849 5722 938Q5722 1028 5718 1088Q5714 1148 5705 1183Q5697 1218 5680 1235Q5664 1253 5639 1257Q5614 1262 5578 1262L5578 1267L5869 1347Q5865 1307 5863 1254Q5861 1201 5860 1140Q5859 1079 5859 1011Q5859 944 5859 876Q5880 912 5905 934Q5931 957 5957 969Q5984 982 6009 987Q6035 992 6057 992Q6118 992 6166 966Q6215 940 6249 889Q6283 839 6301 764Q6320 690 6320 592ZM6596 517Q6596 610 6595 675Q6595 740 6591 783Q6587 827 6578 852Q6570 877 6553 889Q6537 902 6512 905Q6487 908 6451 908L6451 913L6742 993Q6731 884 6730 752Q6730 621 6730 480Q6730 424 6730 386Q6730 348 6730 314Q6731 280 6733 242Q6735 205 6739 149Q6743 95 6767 58Q6791 22 6842 5L6842 0L6481 0L6481 5Q6532 22 6554 61Q6576 100 6580 153Q6582 199 6584 233Q6587 268 6588 296Q6590 324 6591 348Q6593 372 6594 397Q6595 422 6595 450Q6596 479 6596 517ZM6557 1235Q6557 1273 6583 1299Q6609 1326 6647 1326Q6685 1326 6711 1299Q6738 1273 6738 1235Q6738 1197 6711 1171Q6685 1145 6647 1145Q6609 1145 6583 1171Q6557 1197 6557 1235ZM7556 592Q7556 522 7556 463Q7556 405 7557 349Q7558 293 7560 235Q7562 177 7565 109Q7568 71 7590 44Q7612 18 7658 5L7658 0L7346 0L7346 5Q7381 16 7396 45Q7412 75 7415 113Q7418 207 7419 281Q7421 356 7421 409Q7421 515 7419 603Q7417 691 7407 753Q7397 816 7377 850Q7358 885 7322 885Q7289 885 7260 866Q7231 847 7209 812Q7188 778 7175 730Q7162 682 7162 624L7162 494Q7162 397 7164 301Q7166 206 7171 109Q7174 71 7191 44Q7209 18 7244 5L7244 0L6919 0L6919 5Q6970 16 6992 45Q7015 75 7018 113Q7023 212 7026 299Q7029 387 7029 471Q7029 586 7027 662Q7025 738 7011 783Q6998 829 6968 848Q6939 867 6884 867L6884 872L7155 992Q7147 965 7146 929Q7145 894 7145 856Q7165 898 7189 924Q7213 951 7238 966Q7263 981 7287 986Q7312 992 7333 992Q7437 992 7496 890Q7556 789 7556 592ZM8101 336L8102 341L8321 321Q8321 231 8295 165Q8270 100 8230 56Q8191 13 8143 -8Q8095 -29 8049 -29Q7983 -29 7926 5Q7869 39 7827 104Q7785 169 7761 264Q7737 359 7737 482Q7737 605 7761 700Q7785 795 7827 860Q7869 925 7926 959Q7983 993 8049 993Q8104 993 8150 963Q8197 934 8232 876Q8267 819 8288 733Q8310 648 8315 537L7892 389Q7905 225 7950 150Q7995 76 8064 76Q8097 76 8119 88Q8142 101 8156 121Q8171 142 8177 167Q8184 193 8184 220Q8184 252 8163 283Q8143 314 8101 336ZM7887 482L7887 478Q7916 489 7959 506Q8002 523 8067 553Q8104 570 8131 587Q8158 604 8179 616Q8169 755 8136 821Q8104 887 8049 887Q7972 887 7929 785Q7887 683 7887 482ZM8789 111Q8796 180 8801 242Q8806 305 8810 366Q8815 428 8820 491Q8825 554 8831 624Q8834 661 8837 703Q8841 746 8844 789Q8847 833 8850 876Q8853 920 8856 960Q8862 1053 8867 1147Q8868 1153 8868 1158Q8868 1164 8868 1169Q8868 1283 8756 1322L8757 1327L8958 1327Q8969 1327 8979 1310Q8990 1294 8999 1268Q9009 1242 9017 1210Q9025 1179 9031 1148Q9038 1118 9043 1092Q9048 1067 9051 1054Q9063 1010 9078 959Q9093 909 9109 856Q9125 804 9141 751Q9158 698 9173 649Q9209 535 9246 418Q9302 608 9350 767Q9370 835 9390 902Q9410 970 9426 1028Q9443 1087 9455 1130Q9468 1174 9473 1194Q9479 1218 9482 1241Q9486 1265 9494 1284Q9503 1303 9520 1315Q9538 1327 9573 1327L9716 1327L9717 1322Q9625 1292 9625 1195Q9625 1190 9625 1186Q9625 1182 9626 1177Q9628 1151 9631 1090Q9635 1029 9640 944Q9646 860 9653 758Q9660 657 9669 551Q9678 445 9689 341Q9700 238 9713 149Q9721 95 9749 58Q9777 22 9828 5L9829 0L9468 0L9467 5Q9518 22 9536 61Q9554 100 9554 153Q9551 234 9548 308Q9546 382 9542 452Q9539 522 9534 589Q9529 656 9522 721L9509 905Q9489 825 9459 735Q9430 645 9399 555Q9368 465 9340 380Q9312 295 9294 224Q9287 200 9280 174Q9274 149 9267 128Q9261 107 9253 94Q9246 81 9237 81Q9228 81 9220 94Q9212 107 9205 127Q9198 148 9191 173Q9185 199 9178 224Q9157 296 9132 378Q9107 460 9081 545Q9055 631 9028 717Q9002 804 8978 885Q8969 690 8957 497Q8945 305 8938 117Q8937 85 8935 51Q8934 17 8927 -15Q8921 -47 8908 -75Q8895 -103 8870 -125Q8845 -146 8806 -158Q8767 -170 8710 -170L8630 -44L8633 -40Q8655 -45 8673 -49Q8691 -52 8705 -52Q8726 -52 8740 -45Q8754 -37 8763 -18Q8773 1 8778 32Q8784 64 8789 111ZM10067 675L10065 672L9895 777Q9908 848 9934 890Q9961 933 9993 955Q10026 978 10062 985Q10099 992 10134 992Q10258 992 10319 903Q10381 814 10380 640Q10380 549 10379 482Q10379 416 10379 369Q10379 322 10378 291Q10378 261 10378 241Q10378 222 10378 210Q10378 198 10378 188Q10378 163 10381 135Q10384 107 10393 81Q10403 56 10421 35Q10440 15 10471 5L10471 0L10316 0Q10293 14 10281 38Q10269 62 10263 91Q10257 79 10244 58Q10231 38 10210 18Q10189 -1 10159 -15Q10130 -29 10091 -29Q10034 -29 9992 -6Q9951 17 9924 56Q9897 95 9884 145Q9871 196 9871 250Q9871 319 9892 387Q9914 456 9953 510Q9993 565 10048 599Q10103 633 10171 633Q10205 633 10236 626Q10236 706 10229 757Q10222 808 10208 837Q10194 866 10172 876Q10151 887 10123 887Q10099 887 10082 879Q10066 871 10055 857Q10045 843 10040 824Q10036 806 10036 785Q10036 757 10044 728Q10053 699 10067 675ZM10108 77Q10146 77 10170 105Q10195 134 10209 176Q10224 218 10230 265Q10236 313 10236 351L10236 542Q10207 552 10178 552Q10138 552 10107 528Q10076 505 10055 467Q10034 429 10023 379Q10012 329 10012 277Q10012 237 10018 201Q10024 165 10036 137Q10048 110 10066 93Q10084 77 10108 77ZM11188 592Q11188 522 11188 463Q11188 405 11189 349Q11190 293 11192 235Q11194 177 11197 109Q11200 71 11222 44Q11244 18 11290 5L11290 0L10978 0L10978 5Q11013 16 11028 45Q11044 75 11047 113Q11050 207 11051 281Q11053 356 11053 409Q11053 515 11051 603Q11049 691 11039 753Q11029 816 11009 850Q10990 885 10954 885Q10921 885 10892 866Q10863 847 10841 812Q10820 778 10807 730Q10794 682 10794 624L10794 494Q10794 397 10796 301Q10798 206 10803 109Q10806 71 10823 44Q10841 18 10876 5L10876 0L10551 0L10551 5Q10602 16 10624 45Q10647 75 10650 113Q10655 212 10658 299Q10661 387 10661 471Q10661 586 10659 662Q10657 738 10643 783Q10630 829 10600 848Q10571 867 10516 867L10516 872L10787 992Q10779 965 10778 929Q10777 894 10777 856Q10797 898 10821 924Q10845 951 10870 966Q10895 981 10919 986Q10944 992 10965 992Q11069 992 11128 890Q11188 789 11188 592ZM11556 675L11554 672L11384 777Q11397 848 11423 890Q11450 933 11482 955Q11515 978 11551 985Q11588 992 11623 992Q11747 992 11808 903Q11870 814 11869 640Q11869 549 11868 482Q11868 416 11868 369Q11868 322 11867 291Q11867 261 11867 241Q11867 222 11867 210Q11867 198 11867 188Q11867 163 11870 135Q11873 107 11882 81Q11892 56 11910 35Q11929 15 11960 5L11960 0L11805 0Q11782 14 11770 38Q11758 62 11752 91Q11746 79 11733 58Q11720 38 11699 18Q11678 -1 11648 -15Q11619 -29 11580 -29Q11523 -29 11481 -6Q11440 17 11413 56Q11386 95 11373 145Q11360 196 11360 250Q11360 319 11381 387Q11403 456 11442 510Q11482 565 11537 599Q11592 633 11660 633Q11694 633 11725 626Q11725 706 11718 757Q11711 808 11697 837Q11683 866 11661 876Q11640 887 11612 887Q11588 887 11571 879Q11555 871 11544 857Q11534 843 11529 824Q11525 806 11525 785Q11525 757 11533 728Q11542 699 11556 675ZM11597 77Q11635 77 11659 105Q11684 134 11698 176Q11713 218 11719 265Q11725 313 11725 351L11725 542Q11696 552 11667 552Q11627 552 11596 528Q11565 505 11544 467Q11523 429 11512 379Q11501 329 11501 277Q11501 237 11507 201Q11513 165 11525 137Q11537 110 11555 93Q11573 77 11597 77ZM12638 1Q12638 -137 12615 -229Q12593 -321 12553 -377Q12514 -433 12460 -457Q12407 -480 12346 -480Q12310 -480 12268 -466Q12227 -451 12191 -419Q12156 -386 12132 -334Q12109 -282 12109 -208Q12109 -194 12110 -180Q12112 -166 12114 -150L12343 -100L12344 -105Q12296 -134 12273 -172Q12251 -210 12251 -251Q12251 -270 12256 -291Q12261 -311 12272 -328Q12283 -345 12300 -356Q12317 -367 12342 -367Q12360 -367 12377 -364Q12395 -361 12411 -349Q12427 -337 12440 -312Q12453 -286 12462 -242Q12472 -197 12477 -129Q12483 -61 12483 36Q12411 -17 12343 -17Q12279 -17 12225 15Q12171 48 12132 110Q12093 172 12071 261Q12050 350 12050 463Q12050 577 12073 673Q12096 770 12142 840Q12189 911 12258 950Q12328 990 12421 990Q12450 990 12493 983Q12536 977 12581 975L12758 975L12758 970Q12701 951 12675 906Q12649 862 12649 802Q12649 749 12648 681Q12647 613 12646 538Q12645 463 12643 386Q12642 309 12641 238Q12640 167 12639 105Q12638 44 12638 1ZM12484 135L12485 351Q12486 481 12482 619Q12479 758 12473 887Q12461 892 12448 895Q12436 899 12428 899Q12377 899 12335 870Q12293 842 12263 787Q12233 732 12216 650Q12200 569 12200 463Q12200 79 12369 79Q12392 79 12421 88Q12451 98 12484 121L12484 135ZM13206 336L13207 341L13426 321Q13426 231 13400 165Q13375 100 13335 56Q13296 13 13248 -8Q13200 -29 13154 -29Q13088 -29 13031 5Q12974 39 12932 104Q12890 169 12866 264Q12842 359 12842 482Q12842 605 12866 700Q12890 795 12932 860Q12974 925 13031 959Q13088 993 13154 993Q13209 993 13255 963Q13302 934 13337 876Q13372 819 13393 733Q13415 648 13420 537L12997 389Q13010 225 13055 150Q13100 76 13169 76Q13202 76 13224 88Q13247 101 13261 121Q13276 142 13282 167Q13289 193 13289 220Q13289 252 13268 283Q13248 314 13206 336ZM12992 482L12992 478Q13021 489 13064 506Q13107 523 13172 553Q13209 570 13236 587Q13263 604 13284 616Q13274 755 13241 821Q13209 887 13154 887Q13077 887 13034 785Q12992 683 12992 482ZM13756 856Q13785 920 13834 956Q13883 992 13937 992Q13978 992 14018 969Q14058 947 14092 899L13985 724L13982 726Q13988 742 13988 769Q13988 788 13984 809Q13980 830 13971 847Q13963 865 13950 876Q13937 887 13918 887Q13894 887 13868 868Q13843 850 13822 816Q13801 782 13787 733Q13773 685 13773 624Q13773 493 13773 365Q13774 238 13782 109Q13787 30 13855 5L13855 0L13530 0L13530 5Q13581 16 13603 45Q13626 75 13629 113Q13634 212 13637 299Q13640 387 13640 471Q13640 598 13638 682Q13636 766 13622 816Q13609 866 13579 886Q13550 907 13495 907L13495 912L13766 992Q13758 965 13757 929Q13756 894 13756 856Z" fill="#446553" style=""></path></g></g></g></svg>